<svg xmlns="http://www.w3.org/2000/svg" width="1024" height="1024" viewBox="0 0 1024 1024" version="1.1"><path d="M 492.407 124.058 C 479.197 125.339, 461.939 128.750, 449.330 132.573 C 442.830 134.543, 437.389 136.278, 437.239 136.428 C 437.088 136.578, 441.775 137.491, 447.654 138.455 C 470.964 142.281, 481.520 147.631, 498.885 164.424 C 512.468 177.558, 526.080 196.394, 545.190 228.500 C 556.910 248.189, 560.452 255.091, 559.244 255.888 C 558.733 256.224, 553.239 259.650, 547.035 263.500 C 540.831 267.350, 533.943 272.096, 531.729 274.046 C 528.250 277.109, 527.689 278.179, 527.601 281.913 C 527.422 289.566, 525.621 289.003, 581 298.593 C 613.566 304.233, 644.903 309, 649.408 309 C 654.661 309, 657.705 306.868, 659.922 301.633 C 664.455 290.936, 696 193.630, 696 190.346 C 696 189.056, 695.111 187.111, 694.025 186.025 C 689.978 181.978, 687.951 182.346, 671.349 190.143 C 662.734 194.189, 655.362 197.632, 654.966 197.792 C 654.570 197.953, 651.506 193.625, 648.156 188.175 C 636.658 169.463, 627.644 159.596, 613.040 149.736 C 596.179 138.351, 582.104 132.490, 560 127.647 C 540.125 123.293, 514.381 121.926, 492.407 124.058 M 418.324 147.502 C 411.351 149.018, 399.798 154.510, 392.842 159.616 C 382.941 166.884, 376.423 175.235, 344.539 221.500 C 336.958 232.500, 330.334 242.688, 329.818 244.140 C 328.411 248.104, 330.978 253.207, 336.150 256.727 C 348.161 264.902, 416.823 303.969, 419.435 304.115 C 423.805 304.359, 425.590 303.758, 428.165 301.174 C 430.888 298.443, 450.719 267.826, 467.790 240 C 484.958 212.016, 490.050 204.167, 496.397 195.904 L 502.664 187.745 492.145 176.816 C 486.359 170.806, 478.897 163.824, 475.563 161.301 C 468.286 155.796, 455.726 149.622, 447.540 147.526 C 440.335 145.681, 426.750 145.670, 418.324 147.502 M 704.840 302.463 C 702.847 303.817, 683.955 315.767, 662.858 329.018 C 641.761 342.269, 623.723 353.875, 622.774 354.809 C 621.825 355.743, 620.797 357.855, 620.489 359.503 C 620.017 362.035, 622.046 366.146, 633.569 386 C 645.211 406.058, 671.116 450.986, 686.041 477 C 688.407 481.125, 690.477 484.674, 690.641 484.886 C 691.200 485.610, 703.483 482.847, 711 480.305 C 726.104 475.199, 733.599 470.514, 745.135 458.968 C 753.733 450.361, 756.454 446.899, 759.347 440.884 C 764.751 429.651, 766.273 421.721, 765.759 407.500 C 765.211 392.331, 762.034 382.331, 750.696 360.078 C 741 341.046, 720.391 305.330, 717.328 302.250 C 714.341 299.246, 709.451 299.329, 704.840 302.463 M 350.500 304.100 C 347.750 304.576, 338.300 305.858, 329.500 306.949 C 269.964 314.334, 250.393 317.335, 248.072 319.435 C 243.825 323.278, 244.979 331.105, 250.271 334.347 C 252.801 335.897, 273.061 349.166, 274.329 350.103 C 274.784 350.440, 273.622 353.142, 271.747 356.108 C 260.243 374.295, 253.127 391.654, 250.939 406.867 C 249.304 418.233, 250.279 441.859, 252.863 453.500 C 257.624 474.944, 270.191 503.175, 285.671 527.203 C 296.364 543.799, 304.660 554.456, 316.223 566.451 L 324.947 575.500 321.436 566.672 C 309.124 535.712, 311.060 513.952, 329.455 476.500 C 333.507 468.250, 341.067 454.525, 346.255 446 C 366.295 413.066, 368.133 410.134, 369.400 409.083 C 370.380 408.270, 374.795 409.874, 387.065 415.499 C 404.463 423.476, 408.609 424.391, 412 421 C 416.283 416.717, 415.445 414.258, 388.799 353 C 380.272 333.398, 370.100 310.331, 367.962 305.750 C 366.775 303.206, 366.260 303.009, 361.089 303.118 C 358.015 303.182, 353.250 303.624, 350.500 304.100 M 759 457.340 C 753.384 466.133, 740.214 479.419, 732.705 483.865 C 725.869 487.914, 713.259 492.377, 701.264 494.995 C 682.883 499.007, 669.212 500, 632.359 500 L 597.159 500 596.632 497.250 C 596.341 495.738, 595.804 487.167, 595.436 478.205 C 594.721 460.760, 594.369 459.633, 589.226 458.342 C 585.173 457.325, 581.151 460.322, 570.807 472.068 C 565.688 477.881, 556.314 488.456, 549.976 495.568 C 514.348 535.548, 504.109 547.903, 503.378 551.798 C 502.656 555.646, 502.379 555.200, 516.891 573.500 C 535.308 596.725, 575.981 644.965, 579.989 648.337 C 583.789 651.535, 588.739 651.841, 592.139 649.089 C 594.421 647.242, 594.522 646.549, 595.160 628.339 C 595.523 617.978, 595.861 609.431, 595.910 609.346 C 595.960 609.262, 606.013 608.996, 618.250 608.754 C 644.643 608.234, 650.392 607.046, 667.599 598.555 C 684.379 590.274, 697.367 579.736, 711.927 562.586 C 729.653 541.707, 747.787 508.598, 756.612 481 C 759.076 473.292, 764.348 450.964, 763.804 450.535 C 763.637 450.402, 761.475 453.465, 759 457.340 M 331.273 505.641 C 326.299 522.451, 325.742 525.671, 325.679 538 C 325.615 550.696, 327.759 560.634, 332.651 570.309 C 340.381 585.598, 356.275 598.692, 374.978 605.180 C 386.717 609.252, 397.739 610.229, 437.573 610.730 L 475.647 611.209 478.358 607.987 L 481.069 604.764 480.785 553.799 L 480.500 502.835 477.415 500.079 L 474.329 497.322 409.415 496.626 C 373.712 496.242, 342.247 495.671, 339.493 495.355 L 334.487 494.782 331.273 505.641 M 775.672 692.433 C 767.923 694.515, 762.974 698.655, 759.056 706.332 C 754.183 715.878, 754.144 723.542, 758.918 733.766 C 762.706 741.878, 766.635 745.978, 778.043 753.722 C 789.634 761.590, 796 769.492, 796 776.015 C 796 783.606, 794.955 786.121, 791.138 787.716 C 782.925 791.147, 774.037 786.096, 772.523 777.136 L 771.824 773 762.912 773 L 754 773 754 777.462 C 754 788.287, 761.664 799.755, 772.359 804.932 C 776.561 806.966, 778.213 807.180, 786.802 806.803 C 797.801 806.320, 804.587 803.656, 809.407 797.928 C 814.251 792.172, 815.352 788.346, 815.429 777 C 815.495 767.178, 815.310 766.157, 812.552 761.179 C 808.919 754.619, 799.668 744.392, 793.849 740.501 C 777.226 729.385, 772.188 721.569, 776.711 713.912 C 778.634 710.656, 783.815 708.505, 787.234 709.543 C 790.616 710.568, 793.803 713.874, 795.049 717.647 L 796.155 721 805.689 721 L 815.223 721 814.567 717.250 C 814.207 715.188, 812.567 710.715, 810.924 707.311 C 804.762 694.552, 790.377 688.480, 775.672 692.433 M 201.597 692.819 L 197.694 693.139 198.351 720.819 C 198.713 736.044, 199.067 759.300, 199.138 772.500 C 199.208 785.700, 199.478 798.413, 199.738 800.750 L 200.210 805 224.105 805 L 248 805 248 796 L 248 787 233.500 787 L 219 787 219 773 L 219 759 229.539 759 L 240.078 759 239.789 750.278 L 239.500 741.557 229 741.528 L 218.500 741.500 218.225 725.250 L 217.950 709 232.475 709 L 247 709 247 701 L 247 693 230.250 692.802 C 221.037 692.693, 211.700 692.580, 209.500 692.552 C 207.300 692.523, 203.744 692.644, 201.597 692.819 M 258 694.878 C 258 696.461, 260.287 710.523, 263.082 726.128 C 265.877 741.732, 269.236 760.575, 270.546 768 C 271.856 775.425, 273.964 786.900, 275.229 793.500 L 277.530 805.500 286.677 805.786 L 295.823 806.073 297.346 799.286 C 299.833 788.206, 304.726 762.330, 306.639 750.140 L 308.423 738.779 310.106 749.140 C 311.032 754.838, 312.521 762.425, 313.414 766 C 314.307 769.575, 316.545 779.925, 318.388 789 L 321.738 805.500 331.083 805.500 L 340.427 805.500 343.699 788.500 C 345.499 779.150, 347.647 767, 348.473 761.500 C 349.299 756, 351.742 742.725, 353.900 732 C 358.039 711.438, 360.449 694.535, 359.468 692.948 C 359.146 692.427, 355.186 692, 350.669 692 L 342.456 692 339.690 706.250 C 334.020 735.464, 332.018 746.775, 330.709 757 L 329.365 767.500 328.611 761 C 328.197 757.425, 326.594 747.750, 325.049 739.500 C 323.504 731.250, 320.953 717.413, 319.379 708.750 L 316.517 693 308.758 693 C 304.491 693, 301 693.398, 301 693.885 C 301 694.372, 298.718 706.860, 295.929 721.635 C 293.139 736.411, 290.289 752.775, 289.594 758 C 288.586 765.585, 288.218 766.795, 287.770 764 C 282.708 732.429, 276.724 696.001, 276.312 694.250 C 275.813 692.125, 275.289 692, 266.892 692 L 258 692 258 694.878 M 84.454 695.250 C 84.923 697.394, 90.713 729.230, 98.502 772.500 C 100.482 783.500, 102.793 795.546, 103.636 799.269 L 105.169 806.038 114.194 805.576 C 119.158 805.322, 123.333 804.976, 123.472 804.807 C 123.611 804.638, 124.689 799.100, 125.868 792.500 C 127.047 785.900, 129.571 772.175, 131.478 762 C 133.385 751.825, 134.958 742.038, 134.973 740.250 C 134.988 738.462, 135.450 737, 136 737 C 136.550 737, 137 738.772, 137 740.939 C 137 747.910, 147.548 803.882, 149.167 805.501 C 149.386 805.719, 153.679 805.632, 158.706 805.306 L 167.847 804.714 170.487 790.107 C 171.939 782.073, 174.875 766.275, 177.010 755 C 180.994 733.968, 184.459 711.730, 185.626 699.709 L 186.285 692.918 177.407 693.209 L 168.529 693.500 166.271 705.500 C 163.387 720.822, 159.300 749.076, 158.418 759.785 C 158.043 764.341, 157.543 767.876, 157.307 767.640 C 157.071 767.404, 156.488 764.351, 156.012 760.856 C 155.535 757.360, 152.752 740.663, 149.828 723.750 L 144.510 693 136.450 693 L 128.390 693 127.117 700.750 C 126.417 705.013, 124.098 717.275, 121.964 728 C 119.830 738.725, 117.589 751.538, 116.986 756.472 C 115.704 766.954, 115.002 768.523, 114.996 760.917 C 114.991 754.827, 113.466 744.748, 108.577 718.500 C 106.732 708.600, 104.928 698.813, 104.566 696.750 L 103.909 693 93.936 693 C 84.113 693, 83.969 693.034, 84.454 695.250 M 380.560 702.250 C 379.654 707.337, 377.156 720.050, 375.009 730.500 C 372.862 740.950, 369.475 757.825, 367.482 768 C 365.488 778.175, 363.058 790.550, 362.081 795.500 L 360.304 804.500 369.278 805.324 C 374.213 805.778, 378.631 805.769, 379.095 805.305 C 379.560 804.840, 380.706 799.407, 381.642 793.230 L 383.345 782 393.923 782.002 L 404.500 782.003 407.038 793.752 C 408.434 800.213, 409.897 805.388, 410.288 805.250 C 410.680 805.112, 414.825 805, 419.500 805 C 427.028 805, 428 804.793, 428 803.195 C 428 802.202, 426.625 795.114, 424.946 787.445 C 423.266 779.775, 421.055 768.775, 420.033 763 C 418.296 753.184, 410.909 716.580, 407.370 700.250 L 405.799 693 394.004 693 L 382.208 693 380.560 702.250 M 438.456 748.712 C 438.861 779.395, 439.317 804.630, 439.469 804.790 C 439.621 804.949, 443.628 805.353, 448.373 805.688 L 457 806.297 457.086 771.899 C 457.133 752.979, 457.528 738.625, 457.963 740 C 459.255 744.081, 468.483 766.173, 477.282 786.250 L 485.500 804.999 494.250 805 L 503 805 503.076 790.250 C 503.258 754.755, 502.817 694.513, 502.371 693.791 C 502.102 693.356, 497.971 693, 493.191 692.999 L 484.500 692.999 484.722 724.749 L 484.945 756.500 479.722 744.063 C 476.850 737.223, 470.671 723.048, 465.992 712.563 L 457.484 693.500 447.602 693.212 L 437.720 692.924 438.456 748.712 M 513 701.962 L 513 710.925 522.250 711.212 L 531.500 711.500 532.164 757.831 C 532.529 783.313, 532.979 804.299, 533.164 804.468 C 533.349 804.637, 537.775 804.938, 543 805.137 L 552.500 805.500 552.099 758.250 L 551.697 711 561.349 711 L 571 711 571 702 L 571 693 542 693 L 513 693 513 701.962 M 578 695.122 C 578 699.345, 581.251 719.013, 585.996 743.500 C 588.661 757.250, 592.338 776.938, 594.168 787.250 L 597.495 806 607.248 806 C 612.611 806, 617 805.839, 617 805.643 C 617 805.446, 619.445 792.959, 622.434 777.893 C 625.422 762.827, 628.294 748.025, 628.815 745 C 629.556 740.697, 629.788 740.236, 629.881 742.880 C 629.947 744.738, 631.106 751.263, 632.458 757.380 C 633.810 763.496, 636.069 774.575, 637.478 782 C 638.886 789.425, 640.621 797.750, 641.333 800.500 L 642.626 805.500 651.785 805.787 C 660.616 806.064, 660.962 805.992, 661.465 803.787 C 664.199 791.807, 666.363 780.679, 668.957 765.272 C 670.644 755.246, 673.139 741.890, 674.501 735.592 C 677.381 722.273, 679.761 706.839, 680.145 699 L 680.414 693.500 671.707 693.211 C 666.918 693.052, 663 693.256, 663 693.664 C 663 694.072, 661.416 702.172, 659.481 711.664 C 657.545 721.156, 654.690 737.602, 653.137 748.211 C 650.406 766.864, 650.290 767.302, 649.604 761.500 C 649.215 758.200, 647.818 749.650, 646.501 742.500 C 643.769 727.668, 638 694.479, 638 693.591 C 638 693.266, 634.447 693, 630.104 693 L 622.208 693 620.551 702.250 C 619.639 707.337, 617.124 720.500, 614.961 731.500 C 612.798 742.500, 610.401 755.325, 609.636 760 C 608.320 768.039, 608.238 768.218, 608.122 763.298 C 608.055 760.437, 606.030 747.837, 603.621 735.298 C 601.213 722.759, 598.471 708.112, 597.529 702.750 L 595.815 693 586.908 693 C 578.496 693, 578 693.118, 578 695.122 M 702.537 695.250 C 702.262 696.487, 701.330 701.325, 700.466 706 C 699.602 710.675, 697.137 723.275, 694.987 734 C 692.837 744.725, 689.200 763.400, 686.905 775.500 C 684.609 787.600, 682.402 799.188, 682 801.250 L 681.269 805 690.567 805 C 698.569 805, 699.934 804.756, 700.356 803.250 C 700.626 802.288, 701.612 797.098, 702.547 791.717 L 704.248 781.935 714.773 782.217 L 725.298 782.500 727.745 793.500 C 729.090 799.550, 730.411 804.725, 730.678 805 C 730.946 805.275, 734.994 805.660, 739.673 805.856 L 748.180 806.213 747.776 799.856 C 747.461 794.889, 734.567 728.744, 727.970 698.250 L 726.834 693 714.936 693 C 703.412 693, 703.022 693.071, 702.537 695.250 M 819.820 701.961 L 820.140 710.927 829.223 711.213 C 837.445 711.473, 838.329 711.689, 838.553 713.500 C 838.798 715.472, 839.957 783.656, 839.985 797.750 L 840 805 850.083 805 L 860.167 805 859.440 758.241 L 858.714 711.482 867.107 711.553 C 871.723 711.592, 876.063 711.435, 876.750 711.205 C 877.625 710.912, 878 708.117, 878 701.893 L 878 693 848.750 692.998 L 819.500 692.995 819.820 701.961 M 890 716.337 C 890 729.172, 890.298 754.597, 890.662 772.837 L 891.323 806 916.162 806 L 941 806 941 796.500 L 941 787 926 787 L 911 787 910.991 776.750 C 910.987 771.112, 910.701 764.153, 910.356 761.284 L 909.729 756.068 921.115 755.784 L 932.500 755.500 932.789 746.750 L 933.078 738 922.039 738 L 911 738 911 724.467 L 911 710.933 925.500 711.618 L 940 712.303 940 702.652 L 940 693 915 693 L 890 693 890 716.337 M 392.634 722 C 390.468 734.813, 387.028 758.844, 387.015 761.250 L 387 764 394.519 764 C 401.793 764, 402.022 763.927, 401.557 761.750 C 400.769 758.067, 395.142 727.906, 394.234 722.500 L 393.395 717.500 392.634 722 M 713.703 724.500 C 712.306 732.380, 708 761.098, 708 762.534 C 708 763.684, 709.526 764, 715.067 764 C 721.320 764, 722.078 763.798, 721.639 762.250 C 721.100 760.343, 716.610 734.855, 715.254 726 L 714.412 720.500 713.703 724.500 M 154.225 866.750 C 154.487 881.742, 154.596 882.500, 156.500 882.500 C 158.370 882.500, 158.500 881.833, 158.500 872.249 C 158.500 866.610, 158.725 862.006, 159 862.016 C 159.275 862.027, 162.598 866.752, 166.384 872.518 C 176.302 887.620, 177 887.290, 177 867.500 L 177 852 174.500 852 C 172.015 852, 172 852.055, 171.982 861.250 L 171.964 870.500 165.732 860.807 C 160.359 852.450, 159.118 851.107, 156.725 851.057 L 153.949 851 154.225 866.750 M 207.785 861.018 L 207.500 871.036 201.112 861.518 C 195.529 853.198, 194.365 852, 191.862 852 L 189 852 189 867.500 L 189 883 191.466 883 C 193.914 883, 193.934 882.923, 194.216 872.421 L 194.500 861.843 202.236 872.421 C 206.490 878.240, 210.653 883, 211.486 883 C 212.775 883, 213 880.623, 213 867 L 213 851 210.535 851 C 208.098 851, 208.067 851.114, 207.785 861.018 M 227.346 853.054 C 222.782 855.978, 220.690 861.040, 221.190 867.949 C 221.906 877.846, 228.540 883.763, 237.756 882.724 C 243.427 882.085, 246.903 879.551, 249.750 873.980 C 253.763 866.126, 251.896 857.809, 245.102 853.270 C 240.580 850.249, 231.889 850.144, 227.346 853.054 M 257.029 851.250 C 257.044 851.388, 259.688 858.475, 262.903 867 C 268.187 881.009, 268.978 882.500, 271.125 882.500 C 273.289 882.500, 273.959 881.170, 278.680 867.500 C 281.529 859.250, 283.891 852.133, 283.930 851.684 C 283.968 851.235, 282.767 851.010, 281.261 851.184 C 278.775 851.471, 278.210 852.377, 275.146 861 C 273.289 866.225, 271.561 871.175, 271.306 872 C 271.051 872.825, 268.966 868.438, 266.671 862.252 C 262.744 851.661, 262.339 851.004, 259.750 851.002 C 258.238 851.001, 257.013 851.112, 257.029 851.250 M 295.921 853.681 C 294.431 857.564, 286 882.158, 286 882.623 C 286 882.830, 287.129 883, 288.508 883 C 290.501 883, 291.345 882.178, 292.617 879 C 294.199 875.046, 294.277 875, 299.457 875 C 304.641 875, 304.713 875.042, 306.268 879 C 307.379 881.829, 308.431 883, 309.861 883 C 310.972 883, 312.094 882.656, 312.354 882.236 C 312.614 881.816, 310.263 874.728, 307.130 866.486 C 302.345 853.895, 301.080 851.449, 299.219 851.181 C 297.564 850.942, 296.729 851.575, 295.921 853.681 M 314.667 851.667 C 314.300 852.033, 314 853.134, 314 854.112 C 314 855.524, 314.978 855.953, 318.750 856.195 L 323.500 856.500 324 869.500 C 324.275 876.650, 324.837 882.388, 325.250 882.250 C 325.663 882.112, 326.965 882, 328.144 882 C 330.252 882, 330.279 881.786, 329.762 869.048 L 329.237 856.096 334.368 855.798 C 338.821 855.539, 339.542 855.202, 339.820 853.250 C 340.136 851.020, 340.026 851, 327.736 851 C 320.915 851, 315.033 851.300, 314.667 851.667 M 348 867 L 348 883 350.500 883 L 353 883 353 867 L 353 851 350.500 851 L 348 851 348 867 M 362 852.377 C 362 853.519, 369.130 875.114, 371.550 881.304 C 372.020 882.506, 373.081 883.007, 374.730 882.804 C 376.967 882.529, 377.671 881.109, 382.073 868 C 384.751 860.025, 386.955 852.908, 386.971 852.184 C 386.990 851.341, 386.043 850.981, 384.339 851.184 C 381.914 851.472, 381.420 852.340, 378.752 861 C 377.142 866.225, 375.470 870.872, 375.036 871.327 C 374.601 871.782, 372.520 867.394, 370.410 861.577 C 367.061 852.341, 366.285 851, 364.288 851 C 363.012 851, 362 851.609, 362 852.377 M 395 867.038 L 395 883.075 404.250 882.788 C 412.798 882.522, 413.523 882.339, 413.802 880.385 C 414.137 878.040, 411.088 877, 403.875 877 C 400.021 877, 400 876.978, 400 873 L 400 869 405 869 C 409.889 869, 410 868.933, 410 866 C 410 863.067, 409.889 863, 405 863 L 400 863 400 859.500 L 400 856 406.500 856 C 412.767 856, 413 855.910, 413 853.500 C 413 851.019, 412.933 851, 404 851 L 395 851 395 867.038 M 438.115 858.250 C 439.208 862.237, 441.280 869.460, 442.721 874.300 C 445.163 882.508, 445.506 883.080, 447.822 882.800 C 450.010 882.536, 450.668 881.378, 453.357 873.061 L 456.409 863.623 458.178 867.561 C 459.151 869.728, 459.959 872.025, 459.974 872.667 C 459.988 873.309, 460.884 875.896, 461.964 878.417 C 464.518 884.373, 467.457 884.725, 468.926 879.250 C 469.480 877.188, 471.298 870.423, 472.966 864.219 C 474.635 858.014, 476 852.502, 476 851.969 C 476 851.436, 474.907 851, 473.571 851 C 471.471 851, 470.920 851.778, 469.503 856.750 C 466.037 868.913, 465.663 869.997, 465.124 869.457 C 464.818 869.151, 463.371 864.986, 461.909 860.201 C 459.402 852.001, 459.090 851.500, 456.479 851.500 C 453.849 851.500, 453.547 852.007, 450.522 861.500 L 447.335 871.500 445.178 864.427 C 443.992 860.537, 442.735 855.925, 442.385 854.177 C 441.852 851.512, 441.297 851, 438.939 851 L 436.127 851 438.115 858.250 M 485.241 865.729 C 482.348 873.853, 479.986 881.063, 479.991 881.750 C 479.996 882.438, 481.042 883, 482.315 883 C 483.976 883, 485.101 882.011, 486.299 879.500 C 487.904 876.134, 488.175 876, 493.406 876 C 498.735 876, 498.868 876.071, 500 879.500 C 500.963 882.419, 501.632 883, 504.027 883 L 506.898 883 505.317 879.250 C 504.447 877.188, 501.831 870.100, 499.503 863.500 C 495.800 852.999, 494.973 851.466, 492.885 851.229 C 490.666 850.977, 490.135 851.983, 485.241 865.729 M 514 853 C 512.614 854.386, 512 856.333, 512 859.345 C 512 864.356, 513.334 865.929, 520.014 868.792 C 527.620 872.052, 529.277 876.475, 523.636 878.459 C 521.150 879.333, 520.503 879.124, 518.501 876.796 C 516.132 874.042, 512 873.862, 512 876.513 C 512 878.782, 518.889 884, 521.886 884 C 527.714 884, 530.895 882.082, 532.180 877.794 C 533.899 872.057, 532.081 869.263, 524.142 865.433 C 517.206 862.088, 515.121 859.764, 517.011 857.486 C 519.295 854.734, 522.057 854.681, 524.844 857.335 C 527.175 859.555, 527.726 859.697, 529.348 858.500 C 531.145 857.174, 531.145 857.068, 529.348 854.638 C 526.240 850.436, 517.497 849.503, 514 853 M 620.315 852.007 C 617.497 853.142, 616 856.006, 616 860.260 C 616 864.093, 617.905 866.189, 625.133 870.307 C 630.417 873.318, 631.580 875.277, 629.386 877.471 C 627.147 879.710, 624.414 879.342, 622.179 876.500 C 619.955 873.673, 617.231 873.234, 616.339 875.560 C 615.473 877.816, 620.705 882.854, 624.692 883.602 C 628.582 884.332, 633.643 882.535, 635.038 879.929 C 637.833 874.707, 634.924 869.304, 627.064 865.115 C 620.978 861.871, 619.665 859.735, 622.200 857.200 C 624 855.400, 627.106 855.751, 629.530 858.028 C 632.027 860.374, 635 859.750, 635 856.878 C 635 852.759, 625.922 849.748, 620.315 852.007 M 864.204 853.482 C 861.646 855.634, 861 856.935, 861 859.934 C 861 864.420, 862.469 865.931, 870.096 869.289 C 876.068 871.919, 877.618 873.976, 875.961 877.072 C 874.551 879.707, 870.747 879.499, 867.301 876.600 C 864.760 874.462, 864.236 874.354, 862.510 875.616 C 860.631 876.990, 860.667 877.128, 863.664 880.126 C 865.935 882.397, 867.971 883.355, 871.331 883.734 C 875.433 884.196, 876.219 883.935, 878.952 881.202 C 884.672 875.482, 882.602 869.847, 873.001 865 C 866.215 861.575, 865.519 860.767, 866.989 858.021 C 868.381 855.420, 873.099 855.347, 875.402 857.892 C 877.219 859.899, 881 859.674, 881 857.558 C 881 855.093, 876.110 851.767, 871.766 851.277 C 868.085 850.862, 866.910 851.205, 864.204 853.482 M 138 867.500 L 138 883 140.500 883 L 143 883 143 867.500 L 143 852 140.500 852 L 138 852 138 867.500 M 539 854.500 C 539 856.794, 539.369 857, 543.470 857 L 547.940 857 548.220 869.750 L 548.500 882.500 551.250 882.816 L 554 883.133 554 870.066 L 554 857 558.500 857 C 562.633 857, 563 856.796, 563 854.500 L 563 852 551 852 L 539 852 539 854.500 M 571.399 867.717 C 571.785 876.361, 572.190 883.472, 572.300 883.519 C 572.410 883.567, 576.663 883.425, 581.750 883.203 C 590.736 882.812, 591 882.733, 591 880.401 C 591 878.095, 590.723 878, 584 878 L 577 878 577 873.500 L 577 869 581.500 869 C 585.633 869, 586 868.796, 586 866.500 C 586 864.204, 585.633 864, 581.500 864 L 577 864 577 860 L 577 856 583.500 856 C 589.333 856, 590 855.795, 590 854 C 590 852.138, 589.333 852, 580.349 852 L 570.698 852 571.399 867.717 M 649.615 854.088 C 648.155 855.237, 646.294 857.465, 645.480 859.039 C 643.576 862.720, 643.574 872.276, 645.476 875.953 C 649.042 882.849, 661.562 885.951, 667.612 881.438 C 672.339 877.913, 674.304 874.416, 674.720 868.791 C 675.197 862.340, 673.014 857.552, 668.102 854.270 C 663.420 851.142, 653.484 851.045, 649.615 854.088 M 683.014 865.684 C 683.033 885.239, 682.316 884, 693.617 884 L 703 884 703 881 L 703 878 696.030 878 L 689.060 878 688.780 865.250 L 688.500 852.500 685.750 852.184 L 683 851.867 683.014 865.684 M 710 862.435 C 710 868.174, 710.448 874.047, 710.995 875.487 C 712.622 879.767, 717.981 884, 721.773 884 C 730.722 884, 734 878.364, 734 862.980 L 734 853 731.250 853.001 L 728.500 853.003 728.500 864.083 C 728.500 876.509, 727.732 878, 721.335 878 C 716.397 878, 715 874.483, 715 862.050 L 715 852 712.500 852 L 710 852 710 862.435 M 795.241 853.937 C 789.806 857.347, 787.836 861.513, 788.242 868.739 C 788.635 875.718, 790.640 879.288, 795.896 882.366 C 800.245 884.913, 807.739 884.921, 812.084 882.383 C 821.676 876.781, 822.710 861.202, 813.906 854.933 C 809.211 851.590, 799.782 851.087, 795.241 853.937 M 827.723 852.750 C 827.506 853.163, 827.396 854.625, 827.480 856 C 827.563 857.375, 827.714 864.237, 827.815 871.250 L 828 884 830.500 884 L 833 884 833 873.941 C 833 868.409, 833.387 864.121, 833.859 864.413 C 834.332 864.705, 837.586 869.007, 841.090 873.972 C 845.922 880.818, 848.011 883, 849.731 883 C 851.992 883, 852 882.946, 852 867.500 L 852 852 849.536 852 C 847.108 852, 847.068 852.140, 846.786 861.620 L 846.500 871.240 839.504 861.620 C 834.331 854.506, 831.937 852, 830.313 852 C 829.106 852, 827.940 852.337, 827.723 852.750 M 741 854.945 C 741 856.556, 741.816 856.943, 745.750 857.195 L 750.500 857.500 750.779 870.750 L 751.058 884 753.529 884 L 756 884 756 870.426 L 756 856.852 761.158 857.125 C 765.805 857.372, 766.349 857.181, 766.652 855.200 C 766.983 853.029, 766.816 853, 753.994 853 C 741.789 853, 741 853.118, 741 854.945 M 774.156 868.500 L 774.500 884 777.250 884 L 780 884 780 868.500 L 780 853 776.906 853 L 773.811 853 774.156 868.500 M 230.838 856.526 C 229.244 857.392, 227.508 859.720, 226.511 862.333 C 225.012 866.257, 224.995 867.052, 226.339 870.269 C 228.172 874.656, 231.849 877.200, 236.356 877.200 C 240.823 877.200, 243.636 875.605, 245.490 872.020 C 250.750 861.848, 240.669 851.187, 230.838 856.526 M 652.750 858.080 C 651.787 858.641, 650.277 860.497, 649.394 862.204 C 644.915 870.866, 654.220 881.528, 663.260 878.091 C 666.404 876.896, 669.991 871.603, 669.996 868.151 C 670.002 864.487, 667.157 859.393, 664.405 858.139 C 661.331 856.738, 655.108 856.707, 652.750 858.080 M 798.110 858.396 C 794.877 860.187, 793.078 863.717, 793.035 868.350 C 793.007 871.421, 793.688 872.888, 796.400 875.600 C 800.977 880.177, 806.452 880.355, 811.234 876.082 C 814.124 873.500, 814.500 872.569, 814.500 868 C 814.500 863.431, 814.124 862.500, 811.234 859.918 C 807.597 856.668, 802.329 856.057, 798.110 858.396 M 296.655 865.500 C 295.811 867.975, 295.207 870.035, 295.311 870.077 C 296.697 870.641, 302 870.275, 302 869.616 C 302 867.654, 299.633 861, 298.936 861 C 298.524 861, 297.498 863.025, 296.655 865.500 M 491.131 863.294 C 488.445 870.027, 488.558 870.667, 492.433 870.667 C 496.498 870.667, 496.665 870.050, 494.097 864.500 L 492.246 860.500 491.131 863.294" stroke="none" fill="#175625" fill-rule="evenodd"/><path d="M 0 512.001 L 0 1024.002 512.250 1023.751 L 1024.500 1023.500 1024.751 511.750 L 1025.002 0 512.501 0 L 0 0 0 512.001 M 0.496 512.500 C 0.496 794.100, 0.610 909.151, 0.750 768.168 C 0.890 627.186, 0.890 396.786, 0.750 256.168 C 0.610 115.551, 0.496 230.900, 0.496 512.500 M 492.407 124.058 C 479.197 125.339, 461.939 128.750, 449.330 132.573 C 442.830 134.543, 437.389 136.278, 437.239 136.428 C 437.088 136.578, 441.775 137.491, 447.654 138.455 C 470.964 142.281, 481.520 147.631, 498.885 164.424 C 512.468 177.558, 526.080 196.394, 545.190 228.500 C 556.910 248.189, 560.452 255.091, 559.244 255.888 C 558.733 256.224, 553.239 259.650, 547.035 263.500 C 540.831 267.350, 533.943 272.096, 531.729 274.046 C 528.250 277.109, 527.689 278.179, 527.601 281.913 C 527.422 289.566, 525.621 289.003, 581 298.593 C 613.566 304.233, 644.903 309, 649.408 309 C 654.661 309, 657.705 306.868, 659.922 301.633 C 664.455 290.936, 696 193.630, 696 190.346 C 696 189.056, 695.111 187.111, 694.025 186.025 C 689.978 181.978, 687.951 182.346, 671.349 190.143 C 662.734 194.189, 655.362 197.632, 654.966 197.792 C 654.570 197.953, 651.506 193.625, 648.156 188.175 C 636.658 169.463, 627.644 159.596, 613.040 149.736 C 596.179 138.351, 582.104 132.490, 560 127.647 C 540.125 123.293, 514.381 121.926, 492.407 124.058 M 418.324 147.502 C 411.351 149.018, 399.798 154.510, 392.842 159.616 C 382.941 166.884, 376.423 175.235, 344.539 221.500 C 336.958 232.500, 330.334 242.688, 329.818 244.140 C 328.411 248.104, 330.978 253.207, 336.150 256.727 C 348.161 264.902, 416.823 303.969, 419.435 304.115 C 423.805 304.359, 425.590 303.758, 428.165 301.174 C 430.888 298.443, 450.719 267.826, 467.790 240 C 484.958 212.016, 490.050 204.167, 496.397 195.904 L 502.664 187.745 492.145 176.816 C 486.359 170.806, 478.897 163.824, 475.563 161.301 C 468.286 155.796, 455.726 149.622, 447.540 147.526 C 440.335 145.681, 426.750 145.670, 418.324 147.502 M 704.840 302.463 C 702.847 303.817, 683.955 315.767, 662.858 329.018 C 641.761 342.269, 623.723 353.875, 622.774 354.809 C 621.825 355.743, 620.797 357.855, 620.489 359.503 C 620.017 362.035, 622.046 366.146, 633.569 386 C 645.211 406.058, 671.116 450.986, 686.041 477 C 688.407 481.125, 690.477 484.674, 690.641 484.886 C 691.200 485.610, 703.483 482.847, 711 480.305 C 726.104 475.199, 733.599 470.514, 745.135 458.968 C 753.733 450.361, 756.454 446.899, 759.347 440.884 C 764.751 429.651, 766.273 421.721, 765.759 407.500 C 765.211 392.331, 762.034 382.331, 750.696 360.078 C 741 341.046, 720.391 305.330, 717.328 302.250 C 714.341 299.246, 709.451 299.329, 704.840 302.463 M 350.500 304.100 C 347.750 304.576, 338.300 305.858, 329.500 306.949 C 269.964 314.334, 250.393 317.335, 248.072 319.435 C 243.825 323.278, 244.979 331.105, 250.271 334.347 C 252.801 335.897, 273.061 349.166, 274.329 350.103 C 274.784 350.440, 273.622 353.142, 271.747 356.108 C 260.243 374.295, 253.127 391.654, 250.939 406.867 C 249.304 418.233, 250.279 441.859, 252.863 453.500 C 257.624 474.944, 270.191 503.175, 285.671 527.203 C 296.364 543.799, 304.660 554.456, 316.223 566.451 L 324.947 575.500 321.436 566.672 C 309.124 535.712, 311.060 513.952, 329.455 476.500 C 333.507 468.250, 341.067 454.525, 346.255 446 C 366.295 413.066, 368.133 410.134, 369.400 409.083 C 370.380 408.270, 374.795 409.874, 387.065 415.499 C 404.463 423.476, 408.609 424.391, 412 421 C 416.283 416.717, 415.445 414.258, 388.799 353 C 380.272 333.398, 370.100 310.331, 367.962 305.750 C 366.775 303.206, 366.260 303.009, 361.089 303.118 C 358.015 303.182, 353.250 303.624, 350.500 304.100 M 759 457.340 C 753.384 466.133, 740.214 479.419, 732.705 483.865 C 725.869 487.914, 713.259 492.377, 701.264 494.995 C 682.883 499.007, 669.212 500, 632.359 500 L 597.159 500 596.632 497.250 C 596.341 495.738, 595.804 487.167, 595.436 478.205 C 594.721 460.760, 594.369 459.633, 589.226 458.342 C 585.173 457.325, 581.151 460.322, 570.807 472.068 C 565.688 477.881, 556.314 488.456, 549.976 495.568 C 514.348 535.548, 504.109 547.903, 503.378 551.798 C 502.656 555.646, 502.379 555.200, 516.891 573.500 C 535.308 596.725, 575.981 644.965, 579.989 648.337 C 583.789 651.535, 588.739 651.841, 592.139 649.089 C 594.421 647.242, 594.522 646.549, 595.160 628.339 C 595.523 617.978, 595.861 609.431, 595.910 609.346 C 595.960 609.262, 606.013 608.996, 618.250 608.754 C 644.643 608.234, 650.392 607.046, 667.599 598.555 C 684.379 590.274, 697.367 579.736, 711.927 562.586 C 729.653 541.707, 747.787 508.598, 756.612 481 C 759.076 473.292, 764.348 450.964, 763.804 450.535 C 763.637 450.402, 761.475 453.465, 759 457.340 M 331.273 505.641 C 326.299 522.451, 325.742 525.671, 325.679 538 C 325.615 550.696, 327.759 560.634, 332.651 570.309 C 340.381 585.598, 356.275 598.692, 374.978 605.180 C 386.717 609.252, 397.739 610.229, 437.573 610.730 L 475.647 611.209 478.358 607.987 L 481.069 604.764 480.785 553.799 L 480.500 502.835 477.415 500.079 L 474.329 497.322 409.415 496.626 C 373.712 496.242, 342.247 495.671, 339.493 495.355 L 334.487 494.782 331.273 505.641 M 775.672 692.433 C 767.923 694.515, 762.974 698.655, 759.056 706.332 C 754.183 715.878, 754.144 723.542, 758.918 733.766 C 762.706 741.878, 766.635 745.978, 778.043 753.722 C 789.634 761.590, 796 769.492, 796 776.015 C 796 783.606, 794.955 786.121, 791.138 787.716 C 782.925 791.147, 774.037 786.096, 772.523 777.136 L 771.824 773 762.912 773 L 754 773 754 777.462 C 754 788.287, 761.664 799.755, 772.359 804.932 C 776.561 806.966, 778.213 807.180, 786.802 806.803 C 797.801 806.320, 804.587 803.656, 809.407 797.928 C 814.251 792.172, 815.352 788.346, 815.429 777 C 815.495 767.178, 815.310 766.157, 812.552 761.179 C 808.919 754.619, 799.668 744.392, 793.849 740.501 C 777.226 729.385, 772.188 721.569, 776.711 713.912 C 778.634 710.656, 783.815 708.505, 787.234 709.543 C 790.616 710.568, 793.803 713.874, 795.049 717.647 L 796.155 721 805.689 721 L 815.223 721 814.567 717.250 C 814.207 715.188, 812.567 710.715, 810.924 707.311 C 804.762 694.552, 790.377 688.480, 775.672 692.433 M 201.597 692.819 L 197.694 693.139 198.351 720.819 C 198.713 736.044, 199.067 759.300, 199.138 772.500 C 199.208 785.700, 199.478 798.413, 199.738 800.750 L 200.210 805 224.105 805 L 248 805 248 796 L 248 787 233.500 787 L 219 787 219 773 L 219 759 229.539 759 L 240.078 759 239.789 750.278 L 239.500 741.557 229 741.528 L 218.500 741.500 218.225 725.250 L 217.950 709 232.475 709 L 247 709 247 701 L 247 693 230.250 692.802 C 221.037 692.693, 211.700 692.580, 209.500 692.552 C 207.300 692.523, 203.744 692.644, 201.597 692.819 M 258 694.878 C 258 696.461, 260.287 710.523, 263.082 726.128 C 265.877 741.732, 269.236 760.575, 270.546 768 C 271.856 775.425, 273.964 786.900, 275.229 793.500 L 277.530 805.500 286.677 805.786 L 295.823 806.073 297.346 799.286 C 299.833 788.206, 304.726 762.330, 306.639 750.140 L 308.423 738.779 310.106 749.140 C 311.032 754.838, 312.521 762.425, 313.414 766 C 314.307 769.575, 316.545 779.925, 318.388 789 L 321.738 805.500 331.083 805.500 L 340.427 805.500 343.699 788.500 C 345.499 779.150, 347.647 767, 348.473 761.500 C 349.299 756, 351.742 742.725, 353.900 732 C 358.039 711.438, 360.449 694.535, 359.468 692.948 C 359.146 692.427, 355.186 692, 350.669 692 L 342.456 692 339.690 706.250 C 334.020 735.464, 332.018 746.775, 330.709 757 L 329.365 767.500 328.611 761 C 328.197 757.425, 326.594 747.750, 325.049 739.500 C 323.504 731.250, 320.953 717.413, 319.379 708.750 L 316.517 693 308.758 693 C 304.491 693, 301 693.398, 301 693.885 C 301 694.372, 298.718 706.860, 295.929 721.635 C 293.139 736.411, 290.289 752.775, 289.594 758 C 288.586 765.585, 288.218 766.795, 287.770 764 C 282.708 732.429, 276.724 696.001, 276.312 694.250 C 275.813 692.125, 275.289 692, 266.892 692 L 258 692 258 694.878 M 84.454 695.250 C 84.923 697.394, 90.713 729.230, 98.502 772.500 C 100.482 783.500, 102.793 795.546, 103.636 799.269 L 105.169 806.038 114.194 805.576 C 119.158 805.322, 123.333 804.976, 123.472 804.807 C 123.611 804.638, 124.689 799.100, 125.868 792.500 C 127.047 785.900, 129.571 772.175, 131.478 762 C 133.385 751.825, 134.958 742.038, 134.973 740.250 C 134.988 738.462, 135.450 737, 136 737 C 136.550 737, 137 738.772, 137 740.939 C 137 747.910, 147.548 803.882, 149.167 805.501 C 149.386 805.719, 153.679 805.632, 158.706 805.306 L 167.847 804.714 170.487 790.107 C 171.939 782.073, 174.875 766.275, 177.010 755 C 180.994 733.968, 184.459 711.730, 185.626 699.709 L 186.285 692.918 177.407 693.209 L 168.529 693.500 166.271 705.500 C 163.387 720.822, 159.300 749.076, 158.418 759.785 C 158.043 764.341, 157.543 767.876, 157.307 767.640 C 157.071 767.404, 156.488 764.351, 156.012 760.856 C 155.535 757.360, 152.752 740.663, 149.828 723.750 L 144.510 693 136.450 693 L 128.390 693 127.117 700.750 C 126.417 705.013, 124.098 717.275, 121.964 728 C 119.830 738.725, 117.589 751.538, 116.986 756.472 C 115.704 766.954, 115.002 768.523, 114.996 760.917 C 114.991 754.827, 113.466 744.748, 108.577 718.500 C 106.732 708.600, 104.928 698.813, 104.566 696.750 L 103.909 693 93.936 693 C 84.113 693, 83.969 693.034, 84.454 695.250 M 380.560 702.250 C 379.654 707.337, 377.156 720.050, 375.009 730.500 C 372.862 740.950, 369.475 757.825, 367.482 768 C 365.488 778.175, 363.058 790.550, 362.081 795.500 L 360.304 804.500 369.278 805.324 C 374.213 805.778, 378.631 805.769, 379.095 805.305 C 379.560 804.840, 380.706 799.407, 381.642 793.230 L 383.345 782 393.923 782.002 L 404.500 782.003 407.038 793.752 C 408.434 800.213, 409.897 805.388, 410.288 805.250 C 410.680 805.112, 414.825 805, 419.500 805 C 427.028 805, 428 804.793, 428 803.195 C 428 802.202, 426.625 795.114, 424.946 787.445 C 423.266 779.775, 421.055 768.775, 420.033 763 C 418.296 753.184, 410.909 716.580, 407.370 700.250 L 405.799 693 394.004 693 L 382.208 693 380.560 702.250 M 438.456 748.712 C 438.861 779.395, 439.317 804.630, 439.469 804.790 C 439.621 804.949, 443.628 805.353, 448.373 805.688 L 457 806.297 457.086 771.899 C 457.133 752.979, 457.528 738.625, 457.963 740 C 459.255 744.081, 468.483 766.173, 477.282 786.250 L 485.500 804.999 494.250 805 L 503 805 503.076 790.250 C 503.258 754.755, 502.817 694.513, 502.371 693.791 C 502.102 693.356, 497.971 693, 493.191 692.999 L 484.500 692.999 484.722 724.749 L 484.945 756.500 479.722 744.063 C 476.850 737.223, 470.671 723.048, 465.992 712.563 L 457.484 693.500 447.602 693.212 L 437.720 692.924 438.456 748.712 M 513 701.962 L 513 710.925 522.250 711.212 L 531.500 711.500 532.164 757.831 C 532.529 783.313, 532.979 804.299, 533.164 804.468 C 533.349 804.637, 537.775 804.938, 543 805.137 L 552.500 805.500 552.099 758.250 L 551.697 711 561.349 711 L 571 711 571 702 L 571 693 542 693 L 513 693 513 701.962 M 578 695.122 C 578 699.345, 581.251 719.013, 585.996 743.500 C 588.661 757.250, 592.338 776.938, 594.168 787.250 L 597.495 806 607.248 806 C 612.611 806, 617 805.839, 617 805.643 C 617 805.446, 619.445 792.959, 622.434 777.893 C 625.422 762.827, 628.294 748.025, 628.815 745 C 629.556 740.697, 629.788 740.236, 629.881 742.880 C 629.947 744.738, 631.106 751.263, 632.458 757.380 C 633.810 763.496, 636.069 774.575, 637.478 782 C 638.886 789.425, 640.621 797.750, 641.333 800.500 L 642.626 805.500 651.785 805.787 C 660.616 806.064, 660.962 805.992, 661.465 803.787 C 664.199 791.807, 666.363 780.679, 668.957 765.272 C 670.644 755.246, 673.139 741.890, 674.501 735.592 C 677.381 722.273, 679.761 706.839, 680.145 699 L 680.414 693.500 671.707 693.211 C 666.918 693.052, 663 693.256, 663 693.664 C 663 694.072, 661.416 702.172, 659.481 711.664 C 657.545 721.156, 654.690 737.602, 653.137 748.211 C 650.406 766.864, 650.290 767.302, 649.604 761.500 C 649.215 758.200, 647.818 749.650, 646.501 742.500 C 643.769 727.668, 638 694.479, 638 693.591 C 638 693.266, 634.447 693, 630.104 693 L 622.208 693 620.551 702.250 C 619.639 707.337, 617.124 720.500, 614.961 731.500 C 612.798 742.500, 610.401 755.325, 609.636 760 C 608.320 768.039, 608.238 768.218, 608.122 763.298 C 608.055 760.437, 606.030 747.837, 603.621 735.298 C 601.213 722.759, 598.471 708.112, 597.529 702.750 L 595.815 693 586.908 693 C 578.496 693, 578 693.118, 578 695.122 M 702.537 695.250 C 702.262 696.487, 701.330 701.325, 700.466 706 C 699.602 710.675, 697.137 723.275, 694.987 734 C 692.837 744.725, 689.200 763.400, 686.905 775.500 C 684.609 787.600, 682.402 799.188, 682 801.250 L 681.269 805 690.567 805 C 698.569 805, 699.934 804.756, 700.356 803.250 C 700.626 802.288, 701.612 797.098, 702.547 791.717 L 704.248 781.935 714.773 782.217 L 725.298 782.500 727.745 793.500 C 729.090 799.550, 730.411 804.725, 730.678 805 C 730.946 805.275, 734.994 805.660, 739.673 805.856 L 748.180 806.213 747.776 799.856 C 747.461 794.889, 734.567 728.744, 727.970 698.250 L 726.834 693 714.936 693 C 703.412 693, 703.022 693.071, 702.537 695.250 M 819.820 701.961 L 820.140 710.927 829.223 711.213 C 837.445 711.473, 838.329 711.689, 838.553 713.500 C 838.798 715.472, 839.957 783.656, 839.985 797.750 L 840 805 850.083 805 L 860.167 805 859.440 758.241 L 858.714 711.482 867.107 711.553 C 871.723 711.592, 876.063 711.435, 876.750 711.205 C 877.625 710.912, 878 708.117, 878 701.893 L 878 693 848.750 692.998 L 819.500 692.995 819.820 701.961 M 890 716.337 C 890 729.172, 890.298 754.597, 890.662 772.837 L 891.323 806 916.162 806 L 941 806 941 796.500 L 941 787 926 787 L 911 787 910.991 776.750 C 910.987 771.112, 910.701 764.153, 910.356 761.284 L 909.729 756.068 921.115 755.784 L 932.500 755.500 932.789 746.750 L 933.078 738 922.039 738 L 911 738 911 724.467 L 911 710.933 925.500 711.618 L 940 712.303 940 702.652 L 940 693 915 693 L 890 693 890 716.337 M 392.634 722 C 390.468 734.813, 387.028 758.844, 387.015 761.250 L 387 764 394.519 764 C 401.793 764, 402.022 763.927, 401.557 761.750 C 400.769 758.067, 395.142 727.906, 394.234 722.500 L 393.395 717.500 392.634 722 M 713.703 724.500 C 712.306 732.380, 708 761.098, 708 762.534 C 708 763.684, 709.526 764, 715.067 764 C 721.320 764, 722.078 763.798, 721.639 762.250 C 721.100 760.343, 716.610 734.855, 715.254 726 L 714.412 720.500 713.703 724.500 M 154.225 866.750 C 154.487 881.742, 154.596 882.500, 156.500 882.500 C 158.370 882.500, 158.500 881.833, 158.500 872.249 C 158.500 866.610, 158.725 862.006, 159 862.016 C 159.275 862.027, 162.598 866.752, 166.384 872.518 C 176.302 887.620, 177 887.290, 177 867.500 L 177 852 174.500 852 C 172.015 852, 172 852.055, 171.982 861.250 L 171.964 870.500 165.732 860.807 C 160.359 852.450, 159.118 851.107, 156.725 851.057 L 153.949 851 154.225 866.750 M 207.785 861.018 L 207.500 871.036 201.112 861.518 C 195.529 853.198, 194.365 852, 191.862 852 L 189 852 189 867.500 L 189 883 191.466 883 C 193.914 883, 193.934 882.923, 194.216 872.421 L 194.500 861.843 202.236 872.421 C 206.490 878.240, 210.653 883, 211.486 883 C 212.775 883, 213 880.623, 213 867 L 213 851 210.535 851 C 208.098 851, 208.067 851.114, 207.785 861.018 M 227.346 853.054 C 222.782 855.978, 220.690 861.040, 221.190 867.949 C 221.906 877.846, 228.540 883.763, 237.756 882.724 C 243.427 882.085, 246.903 879.551, 249.750 873.980 C 253.763 866.126, 251.896 857.809, 245.102 853.270 C 240.580 850.249, 231.889 850.144, 227.346 853.054 M 257.029 851.250 C 257.044 851.388, 259.688 858.475, 262.903 867 C 268.187 881.009, 268.978 882.500, 271.125 882.500 C 273.289 882.500, 273.959 881.170, 278.680 867.500 C 281.529 859.250, 283.891 852.133, 283.930 851.684 C 283.968 851.235, 282.767 851.010, 281.261 851.184 C 278.775 851.471, 278.210 852.377, 275.146 861 C 273.289 866.225, 271.561 871.175, 271.306 872 C 271.051 872.825, 268.966 868.438, 266.671 862.252 C 262.744 851.661, 262.339 851.004, 259.750 851.002 C 258.238 851.001, 257.013 851.112, 257.029 851.250 M 295.921 853.681 C 294.431 857.564, 286 882.158, 286 882.623 C 286 882.830, 287.129 883, 288.508 883 C 290.501 883, 291.345 882.178, 292.617 879 C 294.199 875.046, 294.277 875, 299.457 875 C 304.641 875, 304.713 875.042, 306.268 879 C 307.379 881.829, 308.431 883, 309.861 883 C 310.972 883, 312.094 882.656, 312.354 882.236 C 312.614 881.816, 310.263 874.728, 307.130 866.486 C 302.345 853.895, 301.080 851.449, 299.219 851.181 C 297.564 850.942, 296.729 851.575, 295.921 853.681 M 314.667 851.667 C 314.300 852.033, 314 853.134, 314 854.112 C 314 855.524, 314.978 855.953, 318.750 856.195 L 323.500 856.500 324 869.500 C 324.275 876.650, 324.837 882.388, 325.250 882.250 C 325.663 882.112, 326.965 882, 328.144 882 C 330.252 882, 330.279 881.786, 329.762 869.048 L 329.237 856.096 334.368 855.798 C 338.821 855.539, 339.542 855.202, 339.820 853.250 C 340.136 851.020, 340.026 851, 327.736 851 C 320.915 851, 315.033 851.300, 314.667 851.667 M 348 867 L 348 883 350.500 883 L 353 883 353 867 L 353 851 350.500 851 L 348 851 348 867 M 362 852.377 C 362 853.519, 369.130 875.114, 371.550 881.304 C 372.020 882.506, 373.081 883.007, 374.730 882.804 C 376.967 882.529, 377.671 881.109, 382.073 868 C 384.751 860.025, 386.955 852.908, 386.971 852.184 C 386.990 851.341, 386.043 850.981, 384.339 851.184 C 381.914 851.472, 381.420 852.340, 378.752 861 C 377.142 866.225, 375.470 870.872, 375.036 871.327 C 374.601 871.782, 372.520 867.394, 370.410 861.577 C 367.061 852.341, 366.285 851, 364.288 851 C 363.012 851, 362 851.609, 362 852.377 M 395 867.038 L 395 883.075 404.250 882.788 C 412.798 882.522, 413.523 882.339, 413.802 880.385 C 414.137 878.040, 411.088 877, 403.875 877 C 400.021 877, 400 876.978, 400 873 L 400 869 405 869 C 409.889 869, 410 868.933, 410 866 C 410 863.067, 409.889 863, 405 863 L 400 863 400 859.500 L 400 856 406.500 856 C 412.767 856, 413 855.910, 413 853.500 C 413 851.019, 412.933 851, 404 851 L 395 851 395 867.038 M 438.115 858.250 C 439.208 862.237, 441.280 869.460, 442.721 874.300 C 445.163 882.508, 445.506 883.080, 447.822 882.800 C 450.010 882.536, 450.668 881.378, 453.357 873.061 L 456.409 863.623 458.178 867.561 C 459.151 869.728, 459.959 872.025, 459.974 872.667 C 459.988 873.309, 460.884 875.896, 461.964 878.417 C 464.518 884.373, 467.457 884.725, 468.926 879.250 C 469.480 877.188, 471.298 870.423, 472.966 864.219 C 474.635 858.014, 476 852.502, 476 851.969 C 476 851.436, 474.907 851, 473.571 851 C 471.471 851, 470.920 851.778, 469.503 856.750 C 466.037 868.913, 465.663 869.997, 465.124 869.457 C 464.818 869.151, 463.371 864.986, 461.909 860.201 C 459.402 852.001, 459.090 851.500, 456.479 851.500 C 453.849 851.500, 453.547 852.007, 450.522 861.500 L 447.335 871.500 445.178 864.427 C 443.992 860.537, 442.735 855.925, 442.385 854.177 C 441.852 851.512, 441.297 851, 438.939 851 L 436.127 851 438.115 858.250 M 485.241 865.729 C 482.348 873.853, 479.986 881.063, 479.991 881.750 C 479.996 882.438, 481.042 883, 482.315 883 C 483.976 883, 485.101 882.011, 486.299 879.500 C 487.904 876.134, 488.175 876, 493.406 876 C 498.735 876, 498.868 876.071, 500 879.500 C 500.963 882.419, 501.632 883, 504.027 883 L 506.898 883 505.317 879.250 C 504.447 877.188, 501.831 870.100, 499.503 863.500 C 495.800 852.999, 494.973 851.466, 492.885 851.229 C 490.666 850.977, 490.135 851.983, 485.241 865.729 M 514 853 C 512.614 854.386, 512 856.333, 512 859.345 C 512 864.356, 513.334 865.929, 520.014 868.792 C 527.620 872.052, 529.277 876.475, 523.636 878.459 C 521.150 879.333, 520.503 879.124, 518.501 876.796 C 516.132 874.042, 512 873.862, 512 876.513 C 512 878.782, 518.889 884, 521.886 884 C 527.714 884, 530.895 882.082, 532.180 877.794 C 533.899 872.057, 532.081 869.263, 524.142 865.433 C 517.206 862.088, 515.121 859.764, 517.011 857.486 C 519.295 854.734, 522.057 854.681, 524.844 857.335 C 527.175 859.555, 527.726 859.697, 529.348 858.500 C 531.145 857.174, 531.145 857.068, 529.348 854.638 C 526.240 850.436, 517.497 849.503, 514 853 M 620.315 852.007 C 617.497 853.142, 616 856.006, 616 860.260 C 616 864.093, 617.905 866.189, 625.133 870.307 C 630.417 873.318, 631.580 875.277, 629.386 877.471 C 627.147 879.710, 624.414 879.342, 622.179 876.500 C 619.955 873.673, 617.231 873.234, 616.339 875.560 C 615.473 877.816, 620.705 882.854, 624.692 883.602 C 628.582 884.332, 633.643 882.535, 635.038 879.929 C 637.833 874.707, 634.924 869.304, 627.064 865.115 C 620.978 861.871, 619.665 859.735, 622.200 857.200 C 624 855.400, 627.106 855.751, 629.530 858.028 C 632.027 860.374, 635 859.750, 635 856.878 C 635 852.759, 625.922 849.748, 620.315 852.007 M 864.204 853.482 C 861.646 855.634, 861 856.935, 861 859.934 C 861 864.420, 862.469 865.931, 870.096 869.289 C 876.068 871.919, 877.618 873.976, 875.961 877.072 C 874.551 879.707, 870.747 879.499, 867.301 876.600 C 864.760 874.462, 864.236 874.354, 862.510 875.616 C 860.631 876.990, 860.667 877.128, 863.664 880.126 C 865.935 882.397, 867.971 883.355, 871.331 883.734 C 875.433 884.196, 876.219 883.935, 878.952 881.202 C 884.672 875.482, 882.602 869.847, 873.001 865 C 866.215 861.575, 865.519 860.767, 866.989 858.021 C 868.381 855.420, 873.099 855.347, 875.402 857.892 C 877.219 859.899, 881 859.674, 881 857.558 C 881 855.093, 876.110 851.767, 871.766 851.277 C 868.085 850.862, 866.910 851.205, 864.204 853.482 M 138 867.500 L 138 883 140.500 883 L 143 883 143 867.500 L 143 852 140.500 852 L 138 852 138 867.500 M 539 854.500 C 539 856.794, 539.369 857, 543.470 857 L 547.940 857 548.220 869.750 L 548.500 882.500 551.250 882.816 L 554 883.133 554 870.066 L 554 857 558.500 857 C 562.633 857, 563 856.796, 563 854.500 L 563 852 551 852 L 539 852 539 854.500 M 571.399 867.717 C 571.785 876.361, 572.190 883.472, 572.300 883.519 C 572.410 883.567, 576.663 883.425, 581.750 883.203 C 590.736 882.812, 591 882.733, 591 880.401 C 591 878.095, 590.723 878, 584 878 L 577 878 577 873.500 L 577 869 581.500 869 C 585.633 869, 586 868.796, 586 866.500 C 586 864.204, 585.633 864, 581.500 864 L 577 864 577 860 L 577 856 583.500 856 C 589.333 856, 590 855.795, 590 854 C 590 852.138, 589.333 852, 580.349 852 L 570.698 852 571.399 867.717 M 649.615 854.088 C 648.155 855.237, 646.294 857.465, 645.480 859.039 C 643.576 862.720, 643.574 872.276, 645.476 875.953 C 649.042 882.849, 661.562 885.951, 667.612 881.438 C 672.339 877.913, 674.304 874.416, 674.720 868.791 C 675.197 862.340, 673.014 857.552, 668.102 854.270 C 663.420 851.142, 653.484 851.045, 649.615 854.088 M 683.014 865.684 C 683.033 885.239, 682.316 884, 693.617 884 L 703 884 703 881 L 703 878 696.030 878 L 689.060 878 688.780 865.250 L 688.500 852.500 685.750 852.184 L 683 851.867 683.014 865.684 M 710 862.435 C 710 868.174, 710.448 874.047, 710.995 875.487 C 712.622 879.767, 717.981 884, 721.773 884 C 730.722 884, 734 878.364, 734 862.980 L 734 853 731.250 853.001 L 728.500 853.003 728.500 864.083 C 728.500 876.509, 727.732 878, 721.335 878 C 716.397 878, 715 874.483, 715 862.050 L 715 852 712.500 852 L 710 852 710 862.435 M 795.241 853.937 C 789.806 857.347, 787.836 861.513, 788.242 868.739 C 788.635 875.718, 790.640 879.288, 795.896 882.366 C 800.245 884.913, 807.739 884.921, 812.084 882.383 C 821.676 876.781, 822.710 861.202, 813.906 854.933 C 809.211 851.590, 799.782 851.087, 795.241 853.937 M 827.723 852.750 C 827.506 853.163, 827.396 854.625, 827.480 856 C 827.563 857.375, 827.714 864.237, 827.815 871.250 L 828 884 830.500 884 L 833 884 833 873.941 C 833 868.409, 833.387 864.121, 833.859 864.413 C 834.332 864.705, 837.586 869.007, 841.090 873.972 C 845.922 880.818, 848.011 883, 849.731 883 C 851.992 883, 852 882.946, 852 867.500 L 852 852 849.536 852 C 847.108 852, 847.068 852.140, 846.786 861.620 L 846.500 871.240 839.504 861.620 C 834.331 854.506, 831.937 852, 830.313 852 C 829.106 852, 827.940 852.337, 827.723 852.750 M 741 854.945 C 741 856.556, 741.816 856.943, 745.750 857.195 L 750.500 857.500 750.779 870.750 L 751.058 884 753.529 884 L 756 884 756 870.426 L 756 856.852 761.158 857.125 C 765.805 857.372, 766.349 857.181, 766.652 855.200 C 766.983 853.029, 766.816 853, 753.994 853 C 741.789 853, 741 853.118, 741 854.945 M 774.156 868.500 L 774.500 884 777.250 884 L 780 884 780 868.500 L 780 853 776.906 853 L 773.811 853 774.156 868.500 M 230.838 856.526 C 229.244 857.392, 227.508 859.720, 226.511 862.333 C 225.012 866.257, 224.995 867.052, 226.339 870.269 C 228.172 874.656, 231.849 877.200, 236.356 877.200 C 240.823 877.200, 243.636 875.605, 245.490 872.020 C 250.750 861.848, 240.669 851.187, 230.838 856.526 M 652.750 858.080 C 651.787 858.641, 650.277 860.497, 649.394 862.204 C 644.915 870.866, 654.220 881.528, 663.260 878.091 C 666.404 876.896, 669.991 871.603, 669.996 868.151 C 670.002 864.487, 667.157 859.393, 664.405 858.139 C 661.331 856.738, 655.108 856.707, 652.750 858.080 M 798.110 858.396 C 794.877 860.187, 793.078 863.717, 793.035 868.350 C 793.007 871.421, 793.688 872.888, 796.400 875.600 C 800.977 880.177, 806.452 880.355, 811.234 876.082 C 814.124 873.500, 814.500 872.569, 814.500 868 C 814.500 863.431, 814.124 862.500, 811.234 859.918 C 807.597 856.668, 802.329 856.057, 798.110 858.396 M 296.655 865.500 C 295.811 867.975, 295.207 870.035, 295.311 870.077 C 296.697 870.641, 302 870.275, 302 869.616 C 302 867.654, 299.633 861, 298.936 861 C 298.524 861, 297.498 863.025, 296.655 865.500 M 491.131 863.294 C 488.445 870.027, 488.558 870.667, 492.433 870.667 C 496.498 870.667, 496.665 870.050, 494.097 864.500 L 492.246 860.500 491.131 863.294" stroke="none" fill="#f6f3eb" fill-rule="evenodd"/></svg>